<?xml version="1.0" encoding="UTF-8" standalone="no"?>
<!-- Created with Inkscape (http://www.inkscape.org/) -->

<svg
   width="25"
   height="25"
   viewBox="0 0 6.6145832 6.6145835"
   version="1.1"
   id="svg5"
   sodipodi:docname="caixa.svg"
   inkscape:version="1.1.2 (0a00cf5, 2022-02-04)"
   xmlns:inkscape="http://www.inkscape.org/namespaces/inkscape"
   xmlns:sodipodi="http://sodipodi.sourceforge.net/DTD/sodipodi-0.dtd"
   xmlns="http://www.w3.org/2000/svg"
   xmlns:svg="http://www.w3.org/2000/svg">
  <sodipodi:namedview
     id="namedview7"
     pagecolor="#505050"
     bordercolor="#eeeeee"
     borderopacity="1"
     inkscape:pageshadow="0"
     inkscape:pageopacity="0"
     inkscape:pagecheckerboard="0"
     inkscape:document-units="mm"
     showgrid="false"
     units="px"
     height="35px"
     inkscape:zoom="16.942857"
     inkscape:cx="17.470489"
     inkscape:cy="17.5"
     inkscape:window-width="1440"
     inkscape:window-height="844"
     inkscape:window-x="0"
     inkscape:window-y="20"
     inkscape:window-maximized="1"
     inkscape:current-layer="layer1" />
  <defs
     id="defs2" />
  <g
     inkscape:label="Layer 1"
     inkscape:groupmode="layer"
     id="layer1">
    <g
       inkscape:label="Calque 1"
       id="layer1-27"
       transform="matrix(0.78566169,0,0,0.78904744,-0.22654921,-0.24175913)"
       style="fill:#ffffff;fill-opacity:1">
      <path
         id="rect1109"
         style="fill:#ffffff;fill-opacity:1;fill-rule:evenodd;stroke-width:15.6011"
         d="M 1.5390625,1.1582031 C 1.2889912,1.1707251 1.0898438,1.3756435 1.0898438,1.6289062 V 32.371094 c -10e-8,0.261433 0.2112227,0.470703 0.4726562,0.470703 h 30.875 c 0.261434,0 0.472656,-0.20927 0.472656,-0.470703 V 1.6289062 c 0,-0.2614324 -0.211222,-0.4707031 -0.472656,-0.4707031 H 1.5625 c -0.00817,0 -0.015371,-4.039e-4 -0.023437,0 z m 2.1640625,2.109375 c 0.00807,-4.039e-4 0.015268,0 0.023437,0 h 26.546876 c 0.261422,0 0.472656,0.2092705 0.472656,0.4707031 v 3.8535157 c 0,0.2614337 -0.211234,0.4726562 -0.472656,0.4726562 H 3.7265625 c -0.2614337,0 -0.4726562,-0.2112225 -0.4726563,-0.4726562 V 3.7382812 c 0,-0.2532628 0.1991474,-0.4581811 0.4492188,-0.4707031 z m 0,6.9687499 c 0.00807,-4.08e-4 0.015268,0 0.023437,0 h 5.828125 c 0.2614337,0 0.472656,0.211223 0.472656,0.472656 v 3.021485 c 0,0.261433 -0.2112223,0.470703 -0.472656,0.470703 H 3.726562 c -0.2614337,0 -0.4726562,-0.20927 -0.4726563,-0.470703 v -3.021485 c 0,-0.253263 0.1991474,-0.460019 0.4492193,-0.472656 z m 10.408203,0 c 0.0081,-4.08e-4 0.01527,0 0.02344,0 h 5.828125 c 0.261433,0 0.472656,0.211223 0.472656,0.472656 v 3.021485 c 0,0.261433 -0.211223,0.470703 -0.472656,0.470703 h -5.828125 c -0.261434,0 -0.472657,-0.20927 -0.472657,-0.470703 v -3.021485 c 0,-0.253263 0.199147,-0.460019 0.449219,-0.472656 z m 10.28711,0 c 0.0081,-4.08e-4 0.01527,0 0.02344,0 H 30.25 c 0.261434,0 0.472656,0.211223 0.472656,0.472656 v 3.021485 c 0,0.261433 -0.211222,0.470703 -0.472656,0.470703 h -5.828125 c -0.261434,0 -0.472656,-0.20927 -0.472656,-0.470703 v -3.021485 c 0,-0.253263 0.199147,-0.460019 0.449219,-0.472656 z m -10.333985,5.53711 c 0.0081,-4.04e-4 0.01527,-1e-6 0.02344,0 h 5.830078 c 0.261433,0 0.470703,0.209269 0.470703,0.470703 v 3.021484 c 0,0.261434 -0.20927,0.472656 -0.470703,0.472656 h -5.830078 c -0.261434,0 -0.470704,-0.211222 -0.470703,-0.472656 v -3.021484 c 0,-0.253265 0.197308,-0.458187 0.447265,-0.470703 z m -10.361328,0.08008 c 0.00807,-4.08e-4 0.015268,0 0.023437,0 h 5.828125 c 0.2614337,0 0.470703,0.211222 0.470703,0.472656 v 3.021484 c 0,0.261434 -0.2092693,0.470703 -0.470703,0.470703 H 3.726562 c -0.2614337,0 -0.4726562,-0.209269 -0.4726563,-0.470703 v -3.021484 c 0,-0.253264 0.1991474,-0.46002 0.4492193,-0.472656 z m 20.71875,0 c 0.0081,-4.08e-4 0.01527,0 0.02344,0 h 5.828126 c 0.261428,0 0.472656,0.211222 0.472656,0.472656 v 3.021484 c 0,0.261434 -0.211228,0.470703 -0.472656,0.470703 h -5.828126 c -0.261428,0 -0.472656,-0.209269 -0.472656,-0.470703 v -3.021484 c 0,-0.253264 0.199148,-0.46002 0.449219,-0.472656 z m -20.71875,5.515625 c 0.00807,-4.04e-4 0.015268,0 0.023437,0 h 5.828125 c 0.2614337,0 0.470704,0.209269 0.470704,0.470703 v 3.021484 c 0,0.261434 -0.2092703,0.472656 -0.470704,0.472656 H 3.726562 c -0.2614337,0 -0.4726562,-0.211222 -0.4726563,-0.472656 v -3.021484 c 0,-0.253264 0.1991474,-0.458181 0.4492193,-0.470703 z m 10.408203,0 c 0.0081,-4.04e-4 0.01527,0 0.02344,0 h 5.828125 c 0.261433,0 0.472656,0.209269 0.472656,0.470703 v 3.021484 c 0,0.261434 -0.211223,0.472656 -0.472656,0.472656 h -5.828125 c -0.261434,0 -0.472657,-0.211222 -0.472657,-0.472656 v -3.021484 c 0,-0.253264 0.199147,-0.458181 0.449219,-0.470703 z m 10.369141,0 h 5.759765 c 0.280418,0 0.50586,0.225442 0.50586,0.505859 v 8.416016 c 0,0.280417 -0.225442,0.507812 -0.50586,0.507812 h -5.759765 c -0.280418,0 -0.507813,-0.227395 -0.507813,-0.507812 V 21.875 c 0,-0.280417 0.227395,-0.505859 0.507813,-0.505859 z m -10.392578,5.382812 h 5.830078 c 0.261433,0 0.470703,0.211223 0.470703,0.472656 v 3.021485 c 0,0.261433 -0.20927,0.470703 -0.470703,0.470703 h -5.830078 c -0.261434,0 -0.470704,-0.20927 -0.470703,-0.470703 v -3.021485 c 0,-0.261433 0.209269,-0.472656 0.470703,-0.472656 z m -10.384766,0.08008 c 0.00807,-4.07e-4 0.015268,0 0.023437,0 h 5.828125 c 0.2614337,0 0.470703,0.211223 0.470703,0.472657 v 3.021484 c 0,0.261434 -0.2092693,0.472656 -0.470703,0.472656 H 3.726562 c -0.2614337,0 -0.4726562,-0.211222 -0.4726563,-0.472656 v -3.021484 c 0,-0.253265 0.1991474,-0.46002 0.4492193,-0.472657 z"
         transform="scale(0.26458333)" />
      <g
         id="g1669"
         transform="translate(0.0037584,-0.2034034)"
         style="fill:#ffffff;fill-opacity:1" />
    </g>
  </g>
</svg>
