<?xml version="1.0" encoding="UTF-8" standalone="no"?>
<!-- Created with Inkscape (http://www.inkscape.org/) -->

<svg
   width="25"
   height="25"
   viewBox="0 0 6.6145832 6.6145835"
   version="1.1"
   id="svg5"
   sodipodi:docname="dish.svg"
   inkscape:version="1.1.2 (0a00cf5, 2022-02-04)"
   xmlns:inkscape="http://www.inkscape.org/namespaces/inkscape"
   xmlns:sodipodi="http://sodipodi.sourceforge.net/DTD/sodipodi-0.dtd"
   xmlns="http://www.w3.org/2000/svg"
   xmlns:svg="http://www.w3.org/2000/svg">
  <sodipodi:namedview
     id="namedview7"
     pagecolor="#505050"
     bordercolor="#eeeeee"
     borderopacity="1"
     inkscape:pageshadow="0"
     inkscape:pageopacity="0"
     inkscape:pagecheckerboard="0"
     inkscape:document-units="mm"
     showgrid="false"
     units="px"
     height="35px"
     inkscape:zoom="16.942857"
     inkscape:cx="17.470489"
     inkscape:cy="17.5"
     inkscape:window-width="1440"
     inkscape:window-height="844"
     inkscape:window-x="0"
     inkscape:window-y="20"
     inkscape:window-maximized="1"
     inkscape:current-layer="layer1" />
  <defs
     id="defs2" />
  <g
     inkscape:label="Layer 1"
     inkscape:groupmode="layer"
     id="layer1">
    <g
       inkscape:label="Calque 1"
       id="layer1-9"
       transform="matrix(0.73495615,0,0,0.7349564,106.53749,16.270348)">
      <path
         id="path25011"
         style="fill:#ffffff;fill-rule:evenodd;stroke-width:5.30061"
         d="m -140.63821,-20.414994 a 3,3 0 0 0 -2.97656,2.734717 3.2500001,3.2500001 0 0 0 3.24786,3.193603 3.2500001,3.2500001 0 0 0 0.49092,-0.03824 3,3 0 0 0 2.23811,-2.889746 3,3 0 0 0 -3.00033,-3.000334 z" />
      <path
         id="path24780-0"
         style="fill:#ffffff;fill-rule:evenodd;stroke-width:7.96769"
         d="m -140.45764,-22.137841 a 4.4999999,4.4999999 0 0 0 -4.49998,4.499983 4.4999999,4.4999999 0 0 0 4.49998,4.499984 4.4999999,4.4999999 0 0 0 4.49999,-4.499984 4.4999999,4.4999999 0 0 0 -4.49999,-4.499983 z m 0,1.250053 a 3.2500001,3.2500001 0 0 1 3.24994,3.24993 3.2500001,3.2500001 0 0 1 -3.24994,3.249931 3.2500001,3.2500001 0 0 1 -3.24993,-3.249931 3.2500001,3.2500001 0 0 1 3.24993,-3.24993 z" />
    </g>
  </g>
</svg>
