<?xml version="1.0" encoding="UTF-8" standalone="no"?>
<!-- Created with Inkscape (http://www.inkscape.org/) -->

<svg
   width="14mm"
   height="14mm"
   viewBox="0 0 14 14"
   version="1.1"
   id="svg992"
   inkscape:version="1.1.2 (0a00cf5, 2022-02-04)"
   sodipodi:docname="contas em espera.svg"
   xmlns:inkscape="http://www.inkscape.org/namespaces/inkscape"
   xmlns:sodipodi="http://sodipodi.sourceforge.net/DTD/sodipodi-0.dtd"
   xmlns="http://www.w3.org/2000/svg"
   xmlns:svg="http://www.w3.org/2000/svg">
  <sodipodi:namedview
     id="namedview994"
     pagecolor="#505050"
     bordercolor="#eeeeee"
     borderopacity="1"
     inkscape:pageshadow="0"
     inkscape:pageopacity="0"
     inkscape:pagecheckerboard="0"
     inkscape:document-units="mm"
     showgrid="false"
     height="14mm"
     showguides="true"
     inkscape:guide-bbox="true"
     inkscape:zoom="1.4008743"
     inkscape:cx="117.78359"
     inkscape:cy="120.28203"
     inkscape:window-width="1440"
     inkscape:window-height="844"
     inkscape:window-x="0"
     inkscape:window-y="20"
     inkscape:window-maximized="1"
     inkscape:current-layer="layer1" />
  <defs
     id="defs989" />
  <g
     inkscape:label="Calque 1"
     inkscape:groupmode="layer"
     id="layer1">
    <g
       inkscape:label="Calque 1"
       id="layer1-7">
      <path
         id="path64285"
         style="fill:none;fill-rule:evenodd;stroke:#ffffff;stroke-width:5.14345"
         d="M 27.279214 50.327504 A 23.884971 23.884977 0 0 1 26.456693 50.341671 A 23.884971 23.884977 0 0 1 2.5717217 26.456693 A 23.884971 23.884977 0 0 1 26.456693 2.5717163 A 23.884971 23.884977 0 0 1 50.341663 26.456693 L 50.341663 26.456693 A 23.884971 23.884977 0 0 1 49.798792 31.520112 "
         transform="scale(0.26458333)" />
      <path
         id="rect64710"
         style="fill:#ffffff;fill-rule:evenodd;stroke-width:1.47689"
         d="m 6.9662612,6.4246435 h 2.6831204 c 0.2836046,0 0.5119214,0.2283171 0.5119214,0.5119217 v 0.072209 c 0,0.2836046 -0.2283168,0.5119217 -0.5119214,0.5119217 H 6.9662612 c -0.2836046,0 -0.5119217,-0.2283171 -0.5119217,-0.5119217 v -0.072209 c 0,-0.2836046 0.2283171,-0.5119217 0.5119217,-0.5119217 z" />
      <path
         id="rect64710-2"
         style="fill:#ffffff;fill-rule:evenodd;stroke-width:1.68816"
         transform="matrix(0.00157735,-0.99999876,0.9999912,0.00419417,0,0)"
         d="m -6.8202827,6.4497871 h 3.8195009 c 0.2836062,0 0.5119245,0.2283184 0.5119245,0.5119245 v 0.07221 c 0,0.2836061 -0.2283183,0.5119245 -0.5119245,0.5119245 h -3.8195009 c -0.2836062,0 -0.5119245,-0.2283184 -0.5119245,-0.5119245 v -0.07221 c 0,-0.2836061 0.2283183,-0.5119245 0.5119245,-0.5119245 z" />
    </g>
    <path
       id="rect1178-3"
       style="fill:#ffffff;fill-rule:evenodd;stroke-width:4.38198"
       d="M 27.945312 30.412109 C 26.525183 30.412109 25.382813 31.556433 25.382812 32.976562 L 25.382812 50.349609 C 25.382813 51.769742 26.525183 52.914062 27.945312 52.914062 L 50.349609 52.914062 C 51.769742 52.914063 52.914062 51.769742 52.914062 50.349609 L 52.914062 32.976562 C 52.914063 31.556433 51.769742 30.412109 50.349609 30.412109 L 27.945312 30.412109 z M 28.962891 33.667969 L 49.412109 33.667969 C 50.133045 33.667969 50.712891 34.247814 50.712891 34.96875 C 50.712891 35.689686 50.133045 36.269531 49.412109 36.269531 L 28.962891 36.269531 C 28.241955 36.269531 27.662109 35.689686 27.662109 34.96875 C 27.662109 34.247814 28.241955 33.667969 28.962891 33.667969 z M 28.962891 38.212891 L 37.371094 38.212891 C 38.09203 38.212891 38.671875 38.794689 38.671875 39.515625 C 38.671875 40.236561 38.09203 40.816406 37.371094 40.816406 L 28.962891 40.816406 C 28.241955 40.816406 27.662109 40.236561 27.662109 39.515625 C 27.662109 38.794689 28.241955 38.212891 28.962891 38.212891 z M 28.898438 42.677734 L 44.875 42.677734 C 45.595936 42.677734 46.175781 43.259533 46.175781 43.980469 C 46.175781 44.701405 45.595936 45.28125 44.875 45.28125 L 28.898438 45.28125 C 28.177501 45.28125 27.597656 44.701405 27.597656 43.980469 C 27.597656 43.259533 28.177501 42.677734 28.898438 42.677734 z M 28.580078 47.724609 L 39.123047 47.724609 C 39.843983 47.724609 40.423828 48.304455 40.423828 49.025391 C 40.423828 49.746327 39.843983 50.328125 39.123047 50.328125 L 28.580078 50.328125 C 27.859142 50.328125 27.279297 49.746327 27.279297 49.025391 C 27.279297 48.304455 27.859142 47.724609 28.580078 47.724609 z "
       transform="scale(0.26458333)" />
  </g>
</svg>
