<?xml version="1.0" encoding="UTF-8" standalone="no"?>
<!-- Created with Inkscape (http://www.inkscape.org/) -->

<svg
   width="14mm"
   height="14mm"
   viewBox="0 0 14 14"
   version="1.1"
   id="svg992"
   inkscape:version="1.1.2 (0a00cf5, 2022-02-04)"
   sodipodi:docname="quatia de produtos.svg"
   xmlns:inkscape="http://www.inkscape.org/namespaces/inkscape"
   xmlns:sodipodi="http://sodipodi.sourceforge.net/DTD/sodipodi-0.dtd"
   xmlns="http://www.w3.org/2000/svg"
   xmlns:svg="http://www.w3.org/2000/svg">
  <sodipodi:namedview
     id="namedview994"
     pagecolor="#505050"
     bordercolor="#eeeeee"
     borderopacity="1"
     inkscape:pageshadow="0"
     inkscape:pageopacity="0"
     inkscape:pagecheckerboard="0"
     inkscape:document-units="mm"
     showgrid="false"
     height="14mm"
     showguides="true"
     inkscape:guide-bbox="true"
     inkscape:zoom="3.9622707"
     inkscape:cx="39.118982"
     inkscape:cy="32.178518"
     inkscape:window-width="1440"
     inkscape:window-height="844"
     inkscape:window-x="0"
     inkscape:window-y="20"
     inkscape:window-maximized="1"
     inkscape:current-layer="layer1" />
  <defs
     id="defs989" />
  <g
     inkscape:label="Calque 1"
     inkscape:groupmode="layer"
     id="layer1">
    <g
       inkscape:label="Calque 1"
       id="layer1-91"
       style="fill:#ffffff;fill-opacity:1">
      <g
         id="g37610"
         transform="translate(-0.50632006,-2.7195127)"
         style="fill:#ffffff;fill-opacity:1" />
      <g
         id="g44148"
         transform="matrix(1.1657514,0,0,1.2259048,-1.38692,-1.9253404)"
         style="fill:#ffffff;fill-opacity:1">
        <path
           id="path37634"
           style="fill:#ffffff;fill-opacity:1;fill-rule:evenodd;stroke-width:4.14999;stroke-opacity:0.921438"
           d="M 1.7057362,6.7336625 A 0.4445178,0.27400228 54.262969 0 0 1.5191843,7.0390702 0.4445178,0.27400228 54.262969 0 0 1.427717,7.0101314 0.4445178,0.27400228 54.262969 0 0 1.2060251,7.3480953 0.4445178,0.27400228 54.262969 0 0 1.6359731,7.7925125 0.4445178,0.27400228 54.262969 0 0 1.8039215,7.7522048 L 2.7289296,9.0394649 A 1.9063557,1.5336807 54.695321 0 0 2.5573638,10.826953 H 11.954206 A 1.6297205,1.6859006 0 0 0 11.983145,10.527746 1.6297205,1.6859006 0 0 0 10.646792,8.8694495 2.0495948,2.0250573 0 0 0 8.6319284,7.2142532 2.0495948,2.0250573 0 0 0 6.5834745,9.2074131 1.3743653,1.3978143 0 0 0 5.4827665,9.7939407 1.9063557,1.5336807 54.695321 0 0 3.2374256,8.6828976 1.9063557,1.5336807 54.695321 0 0 3.0617259,8.7655799 L 2.1325836,7.4726355 A 0.4445178,0.27400228 54.262969 0 0 2.1785756,7.181697 0.4445178,0.27400228 54.262969 0 0 1.7491444,6.7372798 0.4445178,0.27400228 54.262969 0 0 1.7057362,6.7336625 Z" />
        <path
           id="rect38067"
           style="fill:#ffffff;fill-opacity:1;fill-rule:evenodd;stroke:none;stroke-width:4.82744;stroke-opacity:0.921438"
           d="m 8.500016,1.5705464 c -0.073208,0 -0.1318682,0.046405 -0.1318682,0.104319 v 0.4651401 c 0,0.057914 0.058668,0.1043191 0.1318682,0.1043191 H 8.6107848 C 8.5022605,2.3790112 8.4301611,2.5375822 8.4009682,2.7057824 H 8.0627997 c -0.4872313,0 -0.8791219,0.3104031 -0.8791219,0.6958691 V 7.3087048 C 7.5907227,6.9799192 8.0920147,6.800718 8.6084409,6.7993825 c 1.1199515,1.443e-4 2.0805801,0.644083 2.2851301,1.7831733 0.304285,0.061484 0.589442,0.2047531 0.829304,0.416662 V 3.4016515 c 0,-0.385466 -0.392476,-0.6958691 -0.879707,-0.6958691 H 10.506171 C 10.476805,2.5375297 10.404502,2.3789541 10.295768,2.2443243 h 0.110182 c 0.07321,0 0.132454,-0.046404 0.132454,-0.104319 v -0.46514 c 0,-0.057914 -0.05925,-0.104319 -0.132454,-0.104319 z"
           sodipodi:nodetypes="ssssccssccccssccsssss" />
        <g
           id="g41222"
           transform="translate(-0.16880789,1.9655163)"
           style="fill:#ffffff;fill-opacity:1">
          <path
             id="path41220"
             style="fill:#ffffff;fill-opacity:1;fill-rule:evenodd;stroke-width:7.88236;stroke-opacity:0.921438"
             d="m 5.0175781,42.533203 v 2.044922 h 3.7753907 l 3.4746092,5.091797 h 29.63086 l 3.65625,-5.091797 h 3.785156 v -2.044922 z"
             transform="matrix(0.26458333,0,0,0.26458333,0.31345118,-2.1166667)" />
        </g>
      </g>
    </g>
    <path
       id="path2621"
       style="fill:#ffffff;fill-rule:evenodd;stroke-width:0;stroke-miterlimit:4;stroke-dasharray:none"
       d="M 13.181641 2.3300781 A 10.511751 10.615601 0 0 0 2.6699219 12.945312 A 10.511751 10.615601 0 0 0 13.181641 23.560547 A 10.511751 10.615601 0 0 0 23.693359 12.945312 A 10.511751 10.615601 0 0 0 13.181641 2.3300781 z M 13.173828 5.9316406 C 15.071507 5.9316406 16.544493 6.252194 17.591797 6.890625 C 18.648052 7.5226072 19.175781 8.4060272 19.175781 9.5410156 C 19.175781 10.411603 18.83655 11.119821 18.15625 11.667969 C 17.484901 12.209668 16.503833 12.57802 15.214844 12.771484 L 15.214844 12.810547 C 16.629151 12.920176 17.729862 13.261994 18.517578 13.835938 C 19.305294 14.409881 19.699219 15.131365 19.699219 16.001953 C 19.699219 17.259469 19.145119 18.233807 18.035156 18.923828 C 16.925193 19.61385 15.340052 19.958984 13.28125 19.958984 C 11.365669 19.958984 9.8352214 19.648381 8.6894531 19.029297 C 7.5526362 18.403763 6.8769409 17.482495 6.6621094 16.263672 L 9.1601562 16.099609 C 9.4824036 17.711809 10.855444 18.517578 13.28125 18.517578 C 14.498629 18.517578 15.453327 18.30121 16.142578 17.869141 C 16.840781 17.437071 17.189453 16.794601 17.189453 15.943359 C 17.189453 15.201748 16.790808 14.625614 15.994141 14.212891 C 15.206425 13.793719 14.065182 13.583984 12.570312 13.583984 L 11.201172 13.583984 L 11.201172 12.074219 L 12.515625 12.074219 C 13.84042 12.074219 14.86674 11.867801 15.591797 11.455078 C 16.325805 11.035906 16.691406 10.459772 16.691406 9.7246094 C 16.691406 8.9958952 16.392707 8.421125 15.792969 8.0019531 C 15.202182 7.5763325 14.32106 7.3632813 13.148438 7.3632812 C 12.083231 7.3632812 11.219038 7.5597483 10.556641 7.953125 C 9.9031947 8.3465017 9.5214783 8.9013709 9.4140625 9.6171875 L 6.984375 9.4824219 C 7.1634013 8.3667798 7.8032852 7.4966272 8.9042969 6.8710938 C 10.01426 6.2455603 11.437273 5.9316406 13.173828 5.9316406 z "
       transform="scale(0.26458333)" />
  </g>
</svg>
