<?xml version="1.0" encoding="UTF-8" standalone="no"?>
<!-- Created with Inkscape (http://www.inkscape.org/) -->

<svg
   width="50"
   height="50"
   viewBox="0 0 13.229166 13.229167"
   version="1.1"
   id="svg3502"
   xml:space="preserve"
   inkscape:version="1.2.1 (9c6d41e, 2022-07-14)"
   sodipodi:docname="add_user.svg"
   xmlns:inkscape="http://www.inkscape.org/namespaces/inkscape"
   xmlns:sodipodi="http://sodipodi.sourceforge.net/DTD/sodipodi-0.dtd"
   xmlns="http://www.w3.org/2000/svg"
   xmlns:svg="http://www.w3.org/2000/svg"><sodipodi:namedview
     id="namedview3504"
     pagecolor="#ffffff"
     bordercolor="#000000"
     borderopacity="0.25"
     inkscape:showpageshadow="2"
     inkscape:pageopacity="0.0"
     inkscape:pagecheckerboard="true"
     inkscape:deskcolor="#d1d1d1"
     inkscape:document-units="mm"
     showgrid="false"
     inkscape:zoom="8.0751594"
     inkscape:cx="17.956302"
     inkscape:cy="19.875769"
     inkscape:window-width="1440"
     inkscape:window-height="816"
     inkscape:window-x="0"
     inkscape:window-y="0"
     inkscape:window-maximized="1"
     inkscape:current-layer="layer1" /><defs
     id="defs3499" /><g
     inkscape:label="Camada 1"
     inkscape:groupmode="layer"
     id="layer1"><path
       id="path37025"
       style="fill:#ffffff;fill-rule:evenodd;stroke-width:6.7747"
       d="M 6.6145833 0.64543864 A 6.0264565 5.9690132 0 0 0 0.5880778 6.6145833 A 6.0264565 5.9690132 0 0 0 6.6145833 12.583728 A 6.0264565 5.9690132 0 0 0 12.641089 6.6145833 A 6.0264565 5.9690132 0 0 0 6.6145833 0.64543864 z M 6.6145833 2.4794352 A 1.8832676 1.8653166 0 0 1 8.4976725 4.3449544 A 1.8832676 1.8653166 0 0 1 6.6145833 6.2099569 A 1.8832676 1.8653166 0 0 1 4.7314941 4.3449544 A 1.8832676 1.8653166 0 0 1 6.6145833 2.4794352 z M 9.7410075 3.8147542 L 9.840743 3.8147542 C 9.9689222 3.8147542 10.071737 3.9180856 10.071737 4.0462646 L 10.071737 4.6085042 L 10.603487 4.6085042 C 10.759182 4.6085042 10.884607 4.7334121 10.884607 4.8891073 L 10.884607 4.9030599 C 10.884607 5.058755 10.759182 5.1841797 10.603487 5.1841797 L 10.071737 5.1841797 L 10.071737 5.6580526 C 10.071737 5.7862316 9.9689222 5.8890462 9.840743 5.8890462 L 9.7410075 5.8890462 C 9.6128283 5.8890462 9.5100138 5.7862316 9.5100138 5.6580526 L 9.5100138 5.1841797 L 9.0252889 5.1841797 C 8.8695938 5.1841797 8.7441691 5.058755 8.7441691 4.9030599 L 8.7441691 4.8891073 C 8.7441691 4.7334121 8.8695938 4.6085042 9.0252889 4.6085042 L 9.5100138 4.6085042 L 9.5100138 4.0462646 C 9.5100138 3.9180856 9.6128283 3.8147542 9.7410075 3.8147542 z M 6.6145833 6.5138143 A 3.708671 2.5620028 0 0 1 10.322884 9.0759318 A 3.708671 2.5620028 0 0 1 6.6145833 11.638049 A 3.708671 2.5620028 0 0 1 2.9062826 9.0759318 A 3.708671 2.5620028 0 0 1 6.6145833 6.5138143 z " /></g></svg>
