<?xml version="1.0" encoding="UTF-8" standalone="no"?>
<!-- Created with Inkscape (http://www.inkscape.org/) -->

<svg
   width="14mm"
   height="14mm"
   viewBox="0 0 14 14"
   version="1.1"
   id="svg992"
   inkscape:version="1.1.2 (0a00cf5, 2022-02-04)"
   sodipodi:docname="eliminar produtos.svg"
   xmlns:inkscape="http://www.inkscape.org/namespaces/inkscape"
   xmlns:sodipodi="http://sodipodi.sourceforge.net/DTD/sodipodi-0.dtd"
   xmlns="http://www.w3.org/2000/svg"
   xmlns:svg="http://www.w3.org/2000/svg">
  <sodipodi:namedview
     id="namedview994"
     pagecolor="#505050"
     bordercolor="#eeeeee"
     borderopacity="1"
     inkscape:pageshadow="0"
     inkscape:pageopacity="0"
     inkscape:pagecheckerboard="0"
     inkscape:document-units="mm"
     showgrid="false"
     height="14mm"
     showguides="true"
     inkscape:guide-bbox="true"
     inkscape:zoom="5.603497"
     inkscape:cx="25.162858"
     inkscape:cy="39.350427"
     inkscape:window-width="1440"
     inkscape:window-height="844"
     inkscape:window-x="0"
     inkscape:window-y="20"
     inkscape:window-maximized="1"
     inkscape:current-layer="layer1" />
  <defs
     id="defs989" />
  <g
     inkscape:label="Calque 1"
     inkscape:groupmode="layer"
     id="layer1">
    <g
       inkscape:label="Calque 1"
       id="layer1-91"
       style="fill:#ffffff;fill-opacity:1">
      <g
         id="g37610"
         transform="translate(-0.50632006,-2.7195127)"
         style="fill:#ffffff;fill-opacity:1" />
      <g
         id="g44148"
         transform="matrix(1.1657514,0,0,1.2259048,-1.38692,-1.9253404)"
         style="fill:#ffffff;fill-opacity:1">
        <path
           id="path37634"
           style="fill:#ffffff;fill-opacity:1;fill-rule:evenodd;stroke-width:18.7506;stroke-opacity:0.921438"
           d="M 32.208984 0 C 31.886431 0 31.628906 0.21408657 31.628906 0.48242188 L 31.628906 2.6386719 C 31.628906 2.9070072 31.886465 3.1210938 32.208984 3.1210938 L 32.697266 3.1210938 C 32.219109 3.7451426 31.90206 4.4804367 31.773438 5.2597656 L 30.283203 5.2597656 C 28.136467 5.2597656 26.410156 6.6983796 26.410156 8.484375 L 26.410156 21.929688 L 26.457031 21.984375 L 40.974609 4.9042969 C 40.816365 4.257055 40.526735 3.6492575 40.121094 3.1210938 L 40.607422 3.1210938 C 40.929984 3.1210938 41.189453 2.9070118 41.189453 2.6386719 L 41.189453 0.48242188 C 41.189453 0.21408657 40.929958 -7.4014868e-17 40.607422 0 L 32.208984 0 z M 46.267578 7.6210938 L 32.136719 24.246094 C 32.319793 24.234874 32.503366 24.227063 32.6875 24.226562 C 37.621995 24.227231 41.854614 27.210487 42.755859 32.488281 C 44.096536 32.773158 45.351374 33.438076 46.408203 34.419922 L 46.408203 8.484375 C 46.408203 8.184806 46.358644 7.8959667 46.267578 7.6210938 z M 2.2734375 23.921875 A 2.0270308 1.2266501 57.201138 0 0 1.4511719 25.337891 A 2.0270308 1.2266501 57.201138 0 0 1.0488281 25.203125 A 2.0270308 1.2266501 57.201138 0 0 0.072265625 26.769531 A 2.0270308 1.2266501 57.201138 0 0 1.9667969 28.828125 A 2.0270308 1.2266501 57.201138 0 0 2.7070312 28.642578 L 6.78125 34.605469 A 8.7066231 6.8553063 60.515314 0 0 6.0253906 42.888672 L 8.6894531 42.888672 L 15.925781 34.373047 A 8.7066231 6.8553063 60.515314 0 0 9.0214844 32.953125 A 8.7066231 6.8553063 60.515314 0 0 8.2480469 33.337891 L 4.1542969 27.345703 A 2.0270308 1.2266501 57.201138 0 0 4.3574219 25.998047 A 2.0270308 1.2266501 57.201138 0 0 2.4648438 23.939453 A 2.0270308 1.2266501 57.201138 0 0 2.2734375 23.921875 z M 32.791016 26.148438 A 9.0304933 9.3827809 0 0 0 30.314453 26.525391 L 44.224609 42.888672 L 47.427734 42.888672 A 7.1805315 7.8113522 0 0 0 47.556641 41.501953 A 7.1805315 7.8113522 0 0 0 41.667969 33.818359 A 9.0304933 9.3827809 0 0 0 32.791016 26.148438 z M 26.457031 30.929688 L 23.912109 33.921875 A 9.0304933 9.3827809 0 0 0 23.765625 35.384766 A 6.0554391 6.4765502 0 0 0 22.525391 35.554688 L 16.291016 42.888672 L 36.621094 42.888672 L 26.457031 30.929688 z M 1.2441406 44.164062 L 1.2441406 46.671875 L 5.4726562 46.671875 L 7.6054688 44.164062 L 1.2441406 44.164062 z M 15.207031 44.164062 L 10.210938 50.041016 C 9.7569148 50.575157 9.2274776 51.004266 8.6757812 51.339844 L 9.6972656 52.914062 L 44.238281 52.914062 L 45.037109 51.744141 C 44.201187 51.404281 43.372144 50.830385 42.701172 50.041016 L 37.705078 44.164062 L 15.207031 44.164062 z M 45.308594 44.164062 L 47.693359 46.96875 C 47.811806 47.108098 47.906414 47.251889 48.007812 47.394531 L 48.5 46.671875 L 52.914062 46.671875 L 52.914062 44.164062 L 45.308594 44.164062 z "
           transform="matrix(0.22696377,0,0,0.21582698,1.1897219,1.5705464)" />
        <g
           id="g41222"
           transform="translate(-0.16880789,1.9655163)"
           style="fill:#ffffff;fill-opacity:1" />
      </g>
    </g>
    <rect
       style="fill:#ffffff;fill-rule:evenodd;stroke-width:0;stroke-miterlimit:4;stroke-dasharray:none"
       id="rect8623"
       width="1.0062125"
       height="15.294344"
       x="9.3318596"
       y="-6.2555165"
       rx="0.93976551"
       ry="1.1517129"
       transform="rotate(40.071671)" />
    <rect
       style="fill:#ffffff;fill-rule:evenodd;stroke-width:0;stroke-miterlimit:4;stroke-dasharray:none"
       id="rect8623-9"
       width="1.0062125"
       height="15.294344"
       x="-1.340145"
       y="2.6113899"
       rx="0.93976551"
       ry="1.1517129"
       transform="matrix(-0.76523978,0.64374535,0.64374535,0.76523978,0,0)" />
  </g>
</svg>
