<?xml version="1.0" encoding="UTF-8" standalone="no"?>
<!-- Created with Inkscape (http://www.inkscape.org/) -->

<svg
   width="40"
   height="40"
   viewBox="0 0 10.583333 10.583334"
   version="1.1"
   id="svg3133"
   inkscape:version="1.2.1 (9c6d41e, 2022-07-14)"
   sodipodi:docname="forget_password.svg"
   xmlns:inkscape="http://www.inkscape.org/namespaces/inkscape"
   xmlns:sodipodi="http://sodipodi.sourceforge.net/DTD/sodipodi-0.dtd"
   xmlns="http://www.w3.org/2000/svg"
   xmlns:svg="http://www.w3.org/2000/svg">
  <sodipodi:namedview
     id="namedview3135"
     pagecolor="#ffffff"
     bordercolor="#000000"
     borderopacity="0.25"
     inkscape:showpageshadow="2"
     inkscape:pageopacity="0.0"
     inkscape:pagecheckerboard="true"
     inkscape:deskcolor="#d1d1d1"
     inkscape:document-units="mm"
     showgrid="false"
     inkscape:zoom="5.71"
     inkscape:cx="26.970228"
     inkscape:cy="27.408056"
     inkscape:window-width="1440"
     inkscape:window-height="816"
     inkscape:window-x="0"
     inkscape:window-y="0"
     inkscape:window-maximized="1"
     inkscape:current-layer="layer1" />
  <defs
     id="defs3130" />
  <g
     inkscape:label="Camada 1"
     inkscape:groupmode="layer"
     id="layer1">
    <g
       aria-label="?"
       transform="matrix(0.91717089,0,0,0.61110444,0.39890067,0.24639178)"
       id="text3308"
       style="font-size:19.7147px;font-family:'Josefin Sans';-inkscape-font-specification:'Josefin Sans';fill:#ff5555;stroke-width:6.74954">
      <path
         d="m 3.889657,10.651331 c 0,-0.604584 0.078859,-1.110595 0.2365764,-1.5180321 C 4.283951,8.7258617 4.4679549,8.3972833 4.678245,8.1475638 4.8885351,7.8978443 5.1973988,7.5889806 5.6048359,7.2209729 6.104275,6.8003926 6.4722828,6.4192418 6.7088592,6.0775203 6.9454356,5.7357988 7.0637238,5.3086469 7.0637238,4.7960647 c 0,-0.5257253 -0.1905754,-0.9660203 -0.5717263,-1.3208849 -0.3680077,-0.3548647 -0.788588,-0.532297 -1.2617409,-0.532297 -0.5782979,0 -1.0580222,0.1840039 -1.4391731,0.5520117 C 3.6226598,3.6517027 3.4709172,3.8303247 3.3358558,4.0307605 3.1652666,4.2839205 3.0952537,4.6378462 2.8946476,4.7430102 2.6853046,4.8527544 2.2399683,4.5843121 2.2399683,4.5843121 L 1.4441578,4.2123571 c 0,0 -0.1216265,-0.1504893 -0.1453759,-0.2591369 C 1.2661778,3.8040643 1.2216259,3.6745854 1.3174477,3.4813442 1.4477421,3.2185832 1.6151307,2.9470941 1.8196134,2.666877 2.174478,2.180581 2.6542024,1.7665724 3.2587866,1.4248509 3.8765139,1.0699863 4.6059578,0.89255397 5.4471183,0.89255397 6.6168572,0.9056971 7.5697344,1.2277039 8.3057499,1.8585743 c 0.7360155,0.6308704 1.1040233,1.5443182 1.1040233,2.7403434 0,0.6177273 -0.08543,1.1500242 -0.2562911,1.5968908 C 8.9826214,6.6295319 8.7723312,6.9843965 8.5226116,7.2604023 8.2860352,7.5364081 7.9508853,7.8781296 7.5171619,8.2855667 7.1885836,8.5878588 6.9257209,8.8507215 6.7285739,9.0741548 6.54457,9.2975881 6.393424,9.5801654 6.2751358,9.9218869 6.1568476,10.263608 6.0977035,10.677617 6.0977035,11.163913 c 0,0 0.0047,0.365797 -0.093584,0.519141 -0.087869,0.13709 -0.2792103,0.131444 -0.2792103,0.131444 H 4.2730654 c 0,0 -0.2070354,0.02365 -0.2974056,-0.117341 -0.083502,-0.130278 -0.086002,-0.435381 -0.086002,-0.435381 z m 1.1237379,4.968104 c -0.394294,0 -0.7228723,-0.105145 -0.985735,-0.315435 -0.2497195,-0.223433 -0.3745793,-0.512582 -0.3745793,-0.867447 0,-0.341721 0.1248598,-0.63087 0.3745793,-0.867446 0.2628627,-0.236577 0.591441,-0.354865 0.985735,-0.354865 0.3811509,0 0.6965861,0.118288 0.9463057,0.354865 0.2497195,0.236576 0.3745793,0.525725 0.3745793,0.867446 0,0.354865 -0.1248598,0.644014 -0.3745793,0.867447 -0.2497196,0.21029 -0.5651548,0.315435 -0.9463057,0.315435 z"
         id="path3462"
         sodipodi:nodetypes="ssscsscscsaccassccssccccsssccscsscscssscs" />
    </g>
  </g>
</svg>
