<?xml version="1.0" encoding="UTF-8" standalone="no"?>
<!-- Created with Inkscape (http://www.inkscape.org/) -->

<svg
   xmlns:dc="http://purl.org/dc/elements/1.1/"
   xmlns:cc="http://creativecommons.org/ns#"
   xmlns:rdf="http://www.w3.org/1999/02/22-rdf-syntax-ns#"
   xmlns:svg="http://www.w3.org/2000/svg"
   xmlns="http://www.w3.org/2000/svg"
   xmlns:sodipodi="http://sodipodi.sourceforge.net/DTD/sodipodi-0.dtd"
   xmlns:inkscape="http://www.inkscape.org/namespaces/inkscape"
   width="40"
   height="40"
   viewBox="0 0 10.583333 10.583333"
   version="1.1"
   id="svg5"
   inkscape:version="0.92.5 (2060ec1f9f, 2020-04-08)"
   sodipodi:docname="icon_lock.svg">
  <metadata
     id="metadata9">
    <rdf:RDF>
      <cc:Work
         rdf:about="">
        <dc:format>image/svg+xml</dc:format>
        <dc:type
           rdf:resource="http://purl.org/dc/dcmitype/StillImage" />
        <dc:title></dc:title>
      </cc:Work>
    </rdf:RDF>
  </metadata>
  <sodipodi:namedview
     id="namedview7"
     pagecolor="#ffff00"
     bordercolor="#000000"
     borderopacity="0.25"
     inkscape:showpageshadow="2"
     inkscape:pageopacity="1"
     inkscape:pagecheckerboard="0"
     inkscape:deskcolor="#d1d1d1"
     inkscape:document-units="mm"
     showgrid="false"
     inkscape:zoom="10.093949"
     inkscape:cx="13.077141"
     inkscape:cy="20.061523"
     inkscape:window-width="1440"
     inkscape:window-height="816"
     inkscape:window-x="0"
     inkscape:window-y="0"
     inkscape:window-maximized="1"
     inkscape:current-layer="layer1" />
  <defs
     id="defs2" />
  <g
     inkscape:label="Camada 1"
     inkscape:groupmode="layer"
     id="layer1">
    <g
       id="g13"
       transform="translate(1.6666666e-8,-1.1106436)">
      <path
         d="m 2.1213175,4.7004883 c -0.243544,0 -0.4397664,0.1962223 -0.4397664,0.4397664 v 4.9965943 c 0,0.243544 0.1962224,0.439766 0.4397664,0.439766 h 6.3406983 c 0.2435441,0 0.4397664,-0.196222 0.4397664,-0.439766 V 5.1402547 c 0,-0.2435441 -0.1962223,-0.4397664 -0.4397664,-0.4397664 z M 5.2916667,6.2761027 A 1.0583333,1.0583333 0 0 1 6.35,7.334436 1.0583333,1.0583333 0 0 1 5.7030111,8.3095703 v 0.7079671 c 0,0.2279664 -0.1833781,0.4113444 -0.4113444,0.4113444 -0.2279664,0 -0.4113444,-0.183378 -0.4113444,-0.4113444 V 8.3090535 A 1.0583333,1.0583333 0 0 1 4.2333333,7.334436 1.0583333,1.0583333 0 0 1 5.2916667,6.2761027 Z"
         style="fill:#ffffff;stroke-width:0.253759"
         id="rect1514"
         inkscape:connector-curvature="0" />
      <path
         d="m 4.0106079,2.7175821 c -0.6393747,0 -1.1539347,0.51456 -1.1539347,1.1539348 v 1.4495239 h 4.869987 V 3.8715169 c 0,-0.6393748 -0.51456,-1.1539348 -1.1539348,-1.1539348 z"
         style="fill:none;stroke:#ffffff;stroke-width:0.97915298;stroke-dasharray:none;stroke-opacity:1"
         id="rect1732"
         inkscape:connector-curvature="0" />
    </g>
    <rect
       style="fill:none;stroke:#00ffff;stroke-width:0.979153;stroke-dasharray:none;stroke-opacity:1"
       id="rect1732-6"
       width="4.8704624"
       height="4.9255161"
       x="15.681028"
       y="2.3176222"
       ry="1.1541072" />
  </g>
</svg>
