<?xml version="1.0" encoding="UTF-8" standalone="no"?>
<!-- Created with Inkscape (http://www.inkscape.org/) -->

<svg
   xmlns:dc="http://purl.org/dc/elements/1.1/"
   xmlns:cc="http://creativecommons.org/ns#"
   xmlns:rdf="http://www.w3.org/1999/02/22-rdf-syntax-ns#"
   xmlns:svg="http://www.w3.org/2000/svg"
   xmlns="http://www.w3.org/2000/svg"
   xmlns:sodipodi="http://sodipodi.sourceforge.net/DTD/sodipodi-0.dtd"
   xmlns:inkscape="http://www.inkscape.org/namespaces/inkscape"
   width="40"
   height="40"
   viewBox="0 0 10.583333 10.583333"
   version="1.1"
   id="svg5"
   inkscape:version="0.92.5 (2060ec1f9f, 2020-04-08)"
   sodipodi:docname="icon_unlock.svg"
   inkscape:export-filename="icon_unlock.png"
   inkscape:export-xdpi="96"
   inkscape:export-ydpi="96">
  <metadata
     id="metadata9">
    <rdf:RDF>
      <cc:Work
         rdf:about="">
        <dc:format>image/svg+xml</dc:format>
        <dc:type
           rdf:resource="http://purl.org/dc/dcmitype/StillImage" />
        <dc:title></dc:title>
      </cc:Work>
    </rdf:RDF>
  </metadata>
  <sodipodi:namedview
     id="namedview7"
     pagecolor="#ffffff"
     bordercolor="#000000"
     borderopacity="0.25"
     inkscape:showpageshadow="2"
     inkscape:pageopacity="0.0"
     inkscape:pagecheckerboard="true"
     inkscape:deskcolor="#d1d1d1"
     inkscape:document-units="mm"
     showgrid="false"
     inkscape:zoom="14.275"
     inkscape:cx="19.124343"
     inkscape:cy="15.8669"
     inkscape:window-width="1440"
     inkscape:window-height="816"
     inkscape:window-x="0"
     inkscape:window-y="0"
     inkscape:window-maximized="1"
     inkscape:current-layer="layer1"
     showguides="true">
    <sodipodi:guide
       position="8.007005,7.4231609"
       orientation="0,-1"
       id="guide3105"
       inkscape:locked="false" />
  </sodipodi:namedview>
  <defs
     id="defs2" />
  <g
     inkscape:label="Camada 1"
     inkscape:groupmode="layer"
     id="layer1">
    <g
       id="g13"
       transform="translate(1.6666666e-8,-0.41964092)">
      <path
         d="m 2.1213175,4.7004883 c -0.243544,0 -0.4397664,0.1962223 -0.4397664,0.4397664 v 4.9965943 c 0,0.243544 0.1962224,0.439766 0.4397664,0.439766 h 6.3406983 c 0.2435441,0 0.4397664,-0.196222 0.4397664,-0.439766 V 5.1402547 c 0,-0.2435441 -0.1962223,-0.4397664 -0.4397664,-0.4397664 z M 5.2916667,6.2761027 A 1.0583333,1.0583333 0 0 1 6.35,7.334436 1.0583333,1.0583333 0 0 1 5.7030111,8.3095703 v 0.7079671 c 0,0.2279664 -0.1833781,0.4113444 -0.4113444,0.4113444 -0.2279664,0 -0.4113444,-0.183378 -0.4113444,-0.4113444 V 8.3090535 A 1.0583333,1.0583333 0 0 1 4.2333333,7.334436 1.0583333,1.0583333 0 0 1 5.2916667,6.2761027 Z"
         style="fill:#ffffff;stroke-width:0.253759"
         id="rect1514"
         inkscape:connector-curvature="0" />
      <path
         sodipodi:nodetypes="ssccsssscaccscsss"
         d="m 3.9754774,0.84600017 c -0.9021306,0 -1.642277,0.74273013 -1.642277,1.64486083 V 4.720699 H 3.3114352 V 2.490861 c 0,-0.3766176 0.2874247,-0.6640422 0.6640422,-0.6640422 h 2.5626343 c 0.3766176,0 0.6661092,0.2874246 0.6661092,0.6640422 l -3.442e-4,0.6626319 c 0,0 0.012523,0.1330953 0.053611,0.1805731 0.039771,0.045956 0.165526,0.076448 0.165526,0.076448 l 0.4879596,0.00559 c 0,0 0.1315835,-0.02207 0.1949239,-0.086728 0.057576,-0.058774 0.076559,-0.1656901 0.076559,-0.1656901 V 2.490861 c 0,-0.9021307 -0.7422133,-1.64486083 -1.644344,-1.64486083 z"
         style="color:#000000;fill:#ffffff"
         id="rect1732-6"
         inkscape:connector-curvature="0" />
    </g>
  </g>
</svg>
