<?xml version="1.0" encoding="UTF-8" standalone="no"?>
<!-- Created with Inkscape (http://www.inkscape.org/) -->

<svg
   width="25"
   height="25"
   viewBox="0 0 6.6145832 6.6145835"
   version="1.1"
   id="svg5"
   sodipodi:docname="people.svg"
   inkscape:version="1.1.2 (0a00cf5, 2022-02-04)"
   xmlns:inkscape="http://www.inkscape.org/namespaces/inkscape"
   xmlns:sodipodi="http://sodipodi.sourceforge.net/DTD/sodipodi-0.dtd"
   xmlns="http://www.w3.org/2000/svg"
   xmlns:svg="http://www.w3.org/2000/svg">
  <sodipodi:namedview
     id="namedview7"
     pagecolor="#505050"
     bordercolor="#eeeeee"
     borderopacity="1"
     inkscape:pageshadow="0"
     inkscape:pageopacity="0"
     inkscape:pagecheckerboard="0"
     inkscape:document-units="mm"
     showgrid="false"
     units="px"
     height="35px"
     inkscape:zoom="16.942857"
     inkscape:cx="17.470489"
     inkscape:cy="17.5"
     inkscape:window-width="1440"
     inkscape:window-height="844"
     inkscape:window-x="0"
     inkscape:window-y="20"
     inkscape:window-maximized="1"
     inkscape:current-layer="layer1" />
  <defs
     id="defs2" />
  <g
     inkscape:label="Layer 1"
     inkscape:groupmode="layer"
     id="layer1">
    <path
       id="path37025"
       style="fill:#ffffff;fill-rule:evenodd;stroke-width:3.73577"
       d="M 3.3072957,8.3332939e-8 A 3.3072929,3.3072913 0 0 0 2.3333236e-7,3.3072881 3.3072929,3.3072913 0 0 0 3.3072957,6.6145834 3.3072929,3.3072913 0 0 0 6.6145836,3.3072881 3.3072929,3.3072913 0 0 0 3.3072957,8.3332939e-8 Z M 3.3072957,1.0161623 A 1.033529,1.0335285 0 0 1 4.3408255,2.049692 1.033529,1.0335285 0 0 1 3.3072957,3.0832291 1.033529,1.0335285 0 0 1 2.2737658,2.049692 1.033529,1.0335285 0 0 1 3.3072957,1.0161623 Z m 0,2.2354125 a 2.0353024,1.4195461 0 0 1 2.0351629,1.4194858 2.0353024,1.4195461 0 0 1 -2.0351629,1.4194932 2.0353024,1.4195461 0 0 1 -2.03517,-1.4194932 2.0353024,1.4195461 0 0 1 2.03517,-1.4194858 z" />
  </g>
</svg>
