<?xml version="1.0" encoding="UTF-8" standalone="no"?>
<!-- Created with Inkscape (http://www.inkscape.org/) -->

<svg
   width="50"
   height="50"
   viewBox="0 0 13.229166 13.229167"
   version="1.1"
   id="svg5"
   inkscape:version="1.2.1 (9c6d41e, 2022-07-14)"
   sodipodi:docname="recharge.svg"
   xmlns:inkscape="http://www.inkscape.org/namespaces/inkscape"
   xmlns:sodipodi="http://sodipodi.sourceforge.net/DTD/sodipodi-0.dtd"
   xmlns="http://www.w3.org/2000/svg"
   xmlns:svg="http://www.w3.org/2000/svg">
  <sodipodi:namedview
     id="namedview7"
     pagecolor="#ffffff"
     bordercolor="#000000"
     borderopacity="0.25"
     inkscape:showpageshadow="2"
     inkscape:pageopacity="0.0"
     inkscape:pagecheckerboard="0"
     inkscape:deskcolor="#d1d1d1"
     inkscape:document-units="mm"
     showgrid="false"
     inkscape:zoom="8.0751594"
     inkscape:cx="13.622022"
     inkscape:cy="29.658857"
     inkscape:window-width="1440"
     inkscape:window-height="816"
     inkscape:window-x="0"
     inkscape:window-y="0"
     inkscape:window-maximized="1"
     inkscape:current-layer="layer1"
     showguides="true">
    <sodipodi:guide
       position="6.9052426,10.915132"
       orientation="1,0"
       id="guide12709"
       inkscape:locked="false" />
  </sodipodi:namedview>
  <defs
     id="defs2" />
  <g
     inkscape:label="Camada 1"
     inkscape:groupmode="layer"
     id="layer1">
    <g
       id="g9820"
       transform="matrix(1.0164086,0,0,0.98323867,-0.23808098,-0.22892686)"
       style="fill:none">
      <g
         id="path7812">
        <g
           id="g12589">
          <path
             d="M 5.2406041,12.934613 2.5013174,11.692514 A 0.41888549,0.41888549 0 0 1 2.4728966,10.943728 L 5.1101477,9.4975579 a 0.51777095,0.51777095 0 0 1 0.766351,0.4343544 l 0.095326,2.5115047 a 0.51777095,0.51777095 0 0 1 -0.7312206,0.491196 z"
             style="fill:context-stroke;fill-rule:evenodd;stroke-width:0.418885"
             id="path12591" />
        </g>
      </g>
      <g
         id="path6323">
        <g
           id="g12575">
          <path
             d="M 8.2434694,0.98573127 10.982757,2.2278287 a 0.41888549,0.41888549 0 0 1 0.02842,0.748786 L 8.3739276,4.4227861 A 0.51777095,0.51777095 0 0 1 7.6075764,3.9884321 L 7.5122487,1.4769277 A 0.51777095,0.51777095 0 0 1 8.2434694,0.98573127 Z"
             style="fill:context-stroke;fill-rule:evenodd;stroke-width:0.418885"
             id="path12577" />
        </g>
      </g>
    </g>
    <g
       id="g299"
       transform="translate(-0.26032089,0.17674647)"
       style="fill:#ffffff">
      <path
         id="path12595"
         style="color:#000000;fill:#ffffff;stroke-width:0.999686"
         d="m 4.8309495,0.48941736 c -0.02713,-1.46e-4 -0.0556,0.00561 -0.0832,0.020154 -0.102467,0.054012 -0.08785,0.1591633 -0.08785,0.1591633 l 0.0031,1.37355974 C 2.3787518,2.200668 0.67205285,4.2962218 0.76711525,6.7190115 0.86143125,9.1227856 2.698967,11.127108 4.9642755,11.096006 c 0,0 0.116584,0.0064 0.15968,-0.03721 0.0345,-0.03494 0.0248,-0.112655 0.0248,-0.112655 l 5.17e-4,-0.562755 c 0,0 0.01419,-0.117573 -0.02222,-0.155029 -0.04836,-0.04975 -0.129622,-0.03317 -0.205155,-0.03618 C 3.2350608,10.125235 1.7747974,8.6334034 1.6983245,6.6843882 1.6208852,4.7107454 2.9612772,3.1046798 4.6655855,2.9481821 l 0.0021,0.9616985 c 0,0 -0.03333,0.1290501 0.07235,0.1850015 0.11163,0.059098 0.242366,-0.038757 0.242366,-0.038757 L 7.1119875,2.615903 c 0,0 0.167727,-0.1420975 0.168465,-0.3209107 7.57e-4,-0.183446 -0.17725,-0.2919718 -0.17725,-0.2919718 L 5.0118175,0.56383146 c 0,0 -0.08396,-0.073892 -0.180868,-0.0744141 z" />
      <path
         id="path12595-3"
         style="color:#000000;fill:#ffffff;stroke-width:0.999686"
         d="m 9.0697566,12.386213 c 0.027128,-5.29e-4 0.055444,-0.007 0.082668,-0.02223 0.1010828,-0.05656 0.083837,-0.161312 0.083837,-0.161312 L 9.1987699,10.829619 C 11.478338,10.614098 13.132031,8.476467 12.976333,6.0568171 12.821858,3.6561583 10.934711,1.6984763 8.6708922,1.7862902 c 0,0 -0.1167087,-0.00348 -0.1586984,0.041197 -0.033612,0.035783 -0.021977,0.1132397 -0.021977,0.1132397 l 0.013575,0.5625927 c 0,0 -0.011247,0.1178911 0.026096,0.1544238 0.049594,0.048523 0.1304125,0.029912 0.2059975,0.031029 1.6879867,0.024686 3.1851457,1.4794849 3.3103967,3.4259742 0.126834,1.9710851 -1.172923,3.6102096 -2.8727778,3.8093329 l -0.02614,-0.9613453 c 0,0 0.030096,-0.1298436 -0.076957,-0.1831319 -0.1130739,-0.056285 -0.2413197,0.044814 -0.2413197,0.044814 L 6.7362285,10.31751 c 0,0 -0.1641169,0.146253 -0.1603769,0.325028 0.00384,0.183408 0.1845051,0.287443 0.1845051,0.287443 l 2.1267259,1.386371 c 0,0 0.085781,0.07177 0.1826733,0.06987 z" />
    </g>
  </g>
</svg>
